<svg width="1171" height="338" viewBox="0 0 1171 338" fill="none" xmlns="http://www.w3.org/2000/svg">
<path d="M470.745 271.329C455.211 271.329 440.325 269.294 426.085 265.226C411.846 260.973 400.381 255.518 391.689 248.86L406.946 215.019C415.267 220.936 425.068 225.837 436.349 229.72C447.814 233.419 459.372 235.268 471.022 235.268C479.899 235.268 487.018 234.436 492.381 232.772C497.929 230.922 501.997 228.426 504.586 225.282C507.175 222.139 508.47 218.532 508.47 214.464C508.47 209.286 506.435 205.218 502.367 202.259C498.299 199.115 492.936 196.619 486.279 194.77C479.621 192.735 472.224 190.886 464.088 189.222C456.136 187.373 448.091 185.153 439.955 182.564C432.003 179.976 424.698 176.647 418.041 172.579C411.384 168.51 405.929 163.147 401.675 156.49C397.607 149.833 395.573 141.326 395.573 130.97C395.573 119.875 398.531 109.796 404.449 100.735C410.552 91.4887 419.613 84.1842 431.633 78.8214C443.838 73.2736 459.095 70.4997 477.402 70.4997C489.607 70.4997 501.627 71.9791 513.463 74.9379C525.298 77.7118 535.746 81.9651 544.807 87.6978L530.938 121.817C521.877 116.639 512.815 112.848 503.754 110.444C494.693 107.855 485.816 106.56 477.125 106.56C468.433 106.56 461.314 107.577 455.766 109.611C450.218 111.646 446.242 114.327 443.838 117.656C441.434 120.799 440.232 124.498 440.232 128.751C440.232 133.744 442.266 137.813 446.335 140.956C450.403 143.915 455.766 146.319 462.423 148.168C469.081 150.018 476.385 151.867 484.337 153.716C492.474 155.565 500.518 157.692 508.47 160.096C516.606 162.5 524.003 165.736 530.661 169.805C537.318 173.873 542.681 179.236 546.749 185.893C551.002 192.55 553.129 200.965 553.129 211.135C553.129 222.046 550.078 232.032 543.975 241.093C537.873 250.155 528.719 257.459 516.514 263.007C504.494 268.555 489.237 271.329 470.745 271.329ZM668.993 270.219C656.418 270.219 645.415 267.445 635.984 261.897C626.552 256.35 619.155 247.936 613.793 236.655C608.615 225.19 606.026 210.766 606.026 193.383C606.026 175.815 608.522 161.391 613.515 150.11C618.508 138.83 625.72 130.416 635.151 124.868C644.583 119.32 655.863 116.546 668.993 116.546C683.047 116.546 695.622 119.782 706.718 126.255C717.998 132.542 726.874 141.419 733.347 152.884C740.004 164.349 743.333 177.849 743.333 193.383C743.333 209.101 740.004 222.693 733.347 234.159C726.874 245.624 717.998 254.5 706.718 260.788C695.622 267.075 683.047 270.219 668.993 270.219ZM580.783 321.813V118.765H622.114V149.278L621.282 193.66L624.056 237.765V321.813H580.783ZM661.503 234.713C668.715 234.713 675.095 233.049 680.643 229.72C686.376 226.392 690.906 221.676 694.235 215.574C697.749 209.286 699.505 201.889 699.505 193.383C699.505 184.691 697.749 177.294 694.235 171.192C690.906 165.089 686.376 160.373 680.643 157.045C675.095 153.716 668.715 152.052 661.503 152.052C654.291 152.052 647.819 153.716 642.086 157.045C636.353 160.373 631.823 165.089 628.494 171.192C625.165 177.294 623.501 184.691 623.501 193.383C623.501 201.889 625.165 209.286 628.494 215.574C631.823 221.676 636.353 226.392 642.086 229.72C647.819 233.049 654.291 234.713 661.503 234.713ZM772.3 268V118.765H815.573V268H772.3ZM793.937 97.9611C785.985 97.9611 779.512 95.6496 774.519 91.0264C769.526 86.4033 767.03 80.6706 767.03 73.8284C767.03 66.9861 769.526 61.2534 774.519 56.6303C779.512 52.0072 785.985 49.6956 793.937 49.6956C801.888 49.6956 808.361 51.9147 813.354 56.3529C818.347 60.6062 820.843 66.154 820.843 72.9962C820.843 80.2083 818.347 86.2184 813.354 91.0264C808.546 95.6496 802.073 97.9611 793.937 97.9611ZM927.854 270.219C911.766 270.219 897.434 266.983 884.859 260.511C872.284 253.853 862.391 244.699 855.179 233.049C848.152 221.399 844.638 208.177 844.638 193.383C844.638 178.404 848.152 165.181 855.179 153.716C862.391 142.066 872.284 133.004 884.859 126.532C897.434 119.875 911.766 116.546 927.854 116.546C943.573 116.546 957.257 119.875 968.908 126.532C980.558 133.004 989.157 142.343 994.705 154.548L961.141 172.579C957.257 165.551 952.357 160.373 946.439 157.045C940.707 153.716 934.419 152.052 927.577 152.052C920.18 152.052 913.523 153.716 907.605 157.045C901.687 160.373 896.972 165.089 893.458 171.192C890.13 177.294 888.465 184.691 888.465 193.383C888.465 202.074 890.13 209.471 893.458 215.574C896.972 221.676 901.687 226.392 907.605 229.72C913.523 233.049 920.18 234.713 927.577 234.713C934.419 234.713 940.707 233.142 946.439 229.998C952.357 226.669 957.257 221.399 961.141 214.187L994.705 232.494C989.157 244.514 980.558 253.853 968.908 260.511C957.257 266.983 943.573 270.219 927.854 270.219ZM1111.16 268V238.874L1108.38 232.494V180.345C1108.38 171.099 1105.52 163.887 1099.79 158.709C1094.24 153.531 1085.64 150.942 1073.99 150.942C1066.04 150.942 1058.18 152.237 1050.41 154.826C1042.83 157.23 1036.36 160.558 1030.99 164.812L1015.46 134.576C1023.6 128.844 1033.4 124.405 1044.86 121.262C1056.33 118.118 1067.98 116.546 1079.81 116.546C1102.56 116.546 1120.22 121.909 1132.79 132.635C1145.37 143.36 1151.66 160.096 1151.66 182.842V268H1111.16ZM1065.67 270.219C1054.02 270.219 1044.03 268.277 1035.71 264.394C1027.39 260.326 1021.01 254.87 1016.57 248.028C1012.13 241.186 1009.91 233.511 1009.91 225.005C1009.91 216.128 1012.04 208.362 1016.29 201.704C1020.73 195.047 1027.66 189.869 1037.1 186.171C1046.53 182.287 1058.82 180.345 1073.99 180.345H1113.65V205.588H1078.7C1068.53 205.588 1061.51 207.252 1057.62 210.581C1053.92 213.909 1052.07 218.07 1052.07 223.063C1052.07 228.611 1054.2 233.049 1058.45 236.378C1062.89 239.521 1068.9 241.093 1076.48 241.093C1083.7 241.093 1090.17 239.429 1095.9 236.1C1101.63 232.587 1105.8 227.501 1108.38 220.844L1115.04 240.816C1111.9 250.432 1106.16 257.737 1097.84 262.73C1089.52 267.723 1078.8 270.219 1065.67 270.219Z" fill="#00FF48"/>
<path d="M39.8016 46.8291C61.8071 25.8196 91.6873 13.5563 121.972 12.0311C132.337 12.0311 142.733 12.0934 153.097 12C152.568 23.1117 153.097 34.2545 152.786 45.3662C151.323 70.2042 142.141 94.4818 126.672 113.966C106.565 140.174 75.8135 157.759 43.1631 162.304C28.9077 164.607 14.4345 163.144 0.0857854 163.549C0.334787 151.317 -0.443343 139.053 0.521539 126.852C3.32281 96.5984 17.6093 67.6208 39.8016 46.8291Z" fill="#00FF48"/>
<path d="M162.686 12C173.797 12.1245 184.909 11.9377 196.052 12.0623C223.784 14.0231 251.143 24.668 272.028 43.1252C295.061 62.8897 310.842 91.1514 314.888 121.343C316.662 135.349 315.541 149.511 316.226 163.58C306.515 163.549 296.835 163.518 287.124 163.58C263.251 162.926 239.783 155.207 219.8 142.197C210.587 135.598 201.125 128.906 194.215 119.756C179.057 102.823 168.755 81.5649 164.864 59.1547C161.939 43.5921 163.121 27.7182 162.686 12Z" fill="#00FF48"/>
<path d="M0.115055 172.482C9.98175 173.042 19.8796 172.015 29.7151 173.104C71.8276 174.007 112.695 197.662 134.514 233.674C147.026 253.843 153.749 277.747 152.878 301.496C152.847 309.277 152.971 317.027 152.753 324.778C137.128 324.311 121.348 325.587 105.879 322.568C71.5163 316.778 39.9242 296.329 20.9067 267.134C6.49572 245.906 -0.694201 219.979 0.0528046 194.363C0.0528046 187.048 0.0528046 179.765 0.115055 172.482Z" fill="#00FF48"/>
<path d="M263.653 175.782C280.585 172.016 298.046 172.638 315.259 172.638L316.006 173.385C315.632 189.664 316.908 206.129 313.64 222.221C306.761 258.326 282.857 290.572 250.705 308.282C230.691 319.425 207.721 324.903 184.844 324.654C177.53 324.685 170.184 324.529 162.87 324.747C162.87 311.27 162.309 297.73 163.834 284.315C167.383 251.852 184.937 221.629 210.18 201.211C225.805 188.885 244.169 179.952 263.653 175.782Z" fill="#00FF48"/>
</svg>
