<svg width="1634" height="1617" viewBox="0 0 1634 1617" fill="none" xmlns="http://www.w3.org/2000/svg">
<path d="M205.662 179.969C319.368 71.4084 473.765 8.04149 630.252 0.16083C683.808 0.16083 737.526 0.482489 791.082 0C788.348 57.4162 791.082 114.993 789.473 172.41C781.914 300.752 734.47 426.199 654.537 526.878C550.641 662.297 391.742 753.166 223.031 776.647C149.371 788.549 74.5853 780.99 0.442828 783.08C1.72947 719.874 -2.29128 656.507 2.69444 593.462C17.1691 437.135 90.99 287.403 205.662 179.969Z" fill="#00FF48"/>
<path d="M840.627 0C898.043 0.643319 955.459 -0.32166 1013.04 0.32166C1156.34 10.4539 1297.71 65.4577 1405.62 160.83C1524.64 262.957 1606.18 408.99 1627.08 564.995C1636.25 637.368 1630.46 710.546 1634 783.241C1583.82 783.08 1533.8 782.919 1483.62 783.241C1360.27 779.864 1239 739.978 1135.75 672.751C1088.14 638.655 1039.25 604.077 1003.55 556.793C925.223 469.301 871.989 359.455 851.885 243.657C836.767 163.242 842.879 81.219 840.627 0Z" fill="#00FF48"/>
<path d="M0.594511 829.239C51.5775 832.134 102.721 826.827 153.544 832.456C371.146 837.12 582.316 959.351 695.057 1145.43C759.711 1249.65 794.45 1373.17 789.947 1495.88C789.786 1536.09 790.429 1576.13 789.304 1616.18C708.567 1613.77 627.026 1620.36 547.094 1604.76C369.538 1574.85 206.296 1469.18 108.029 1318.32C33.5646 1208.64 -3.58706 1074.67 0.272851 942.303C0.272851 904.508 0.272851 866.873 0.594511 829.239Z" fill="#00FF48"/>
<path d="M1362.34 846.29C1449.84 826.83 1540.06 830.046 1629 830.046L1632.86 833.906C1630.93 918.02 1637.52 1003.1 1620.64 1086.25C1585.09 1272.81 1461.58 1439.43 1295.44 1530.94C1192.03 1588.52 1073.33 1616.83 955.123 1615.54C917.328 1615.7 879.372 1614.9 841.577 1616.02C841.577 1546.38 838.682 1476.42 846.563 1407.1C864.898 1239.36 955.606 1083.19 1086.04 977.688C1166.78 913.999 1261.66 867.841 1362.34 846.29Z" fill="#00FF48"/>
</svg>
